<svg width="48" height="48" viewBox="0 0 48 48" fill="none" xmlns="http://www.w3.org/2000/svg">
<g clip-path="url(#clip0_140_180)">
<path d="M6.3999 23.1998V4.79981C6.3999 3.73894 6.82133 2.72152 7.57148 1.97138C8.32162 1.22123 9.33904 0.799806 10.3999 0.799806H30.6719C31.0923 0.799475 31.5086 0.881967 31.897 1.04257C32.2855 1.20317 32.6385 1.43874 32.9359 1.73581L40.6639 9.46381C40.961 9.76121 41.1965 10.1142 41.3571 10.5027C41.5177 10.8912 41.6002 11.3075 41.5999 11.7278V23.1998H6.3999Z" fill="#AAAAAA"/>
<path d="M14.3999 4.7998H11.1999C10.7581 4.7998 10.3999 5.15798 10.3999 5.5998V8.7998C10.3999 9.24163 10.7581 9.5998 11.1999 9.5998H14.3999C14.8417 9.5998 15.1999 9.24163 15.1999 8.7998V5.5998C15.1999 5.15798 14.8417 4.7998 14.3999 4.7998Z" fill="#3D9C3C"/>
<path d="M20.0001 6.3998H18.4001C18.1879 6.3998 17.9844 6.31552 17.8344 6.16549C17.6844 6.01546 17.6001 5.81198 17.6001 5.5998C17.6001 5.38763 17.6844 5.18415 17.8344 5.03412C17.9844 4.88409 18.1879 4.7998 18.4001 4.7998H20.0001C20.2123 4.7998 20.4158 4.88409 20.5658 5.03412C20.7158 5.18415 20.8001 5.38763 20.8001 5.5998C20.8001 5.81198 20.7158 6.01546 20.5658 6.16549C20.4158 6.31552 20.2123 6.3998 20.0001 6.3998Z" fill="#3F9E3D"/>
<path d="M28.7999 6.3998H23.1999C22.9877 6.3998 22.7842 6.31552 22.6342 6.16549C22.4842 6.01546 22.3999 5.81198 22.3999 5.5998C22.3999 5.38763 22.4842 5.18415 22.6342 5.03412C22.7842 4.88409 22.9877 4.7998 23.1999 4.7998H28.7999C29.0121 4.7998 29.2156 4.88409 29.3656 5.03412C29.5156 5.18415 29.5999 5.38763 29.5999 5.5998C29.5999 5.81198 29.5156 6.01546 29.3656 6.16549C29.2156 6.31552 29.0121 6.3998 28.7999 6.3998Z" fill="#3F9E3D"/>
<path d="M25.6001 9.6H18.4001C18.1879 9.6 17.9844 9.51571 17.8344 9.36569C17.6844 9.21566 17.6001 9.01217 17.6001 8.8C17.6001 8.58783 17.6844 8.38434 17.8344 8.23431C17.9844 8.08429 18.1879 8 18.4001 8H25.6001C25.8123 8 26.0158 8.08429 26.1658 8.23431C26.3158 8.38434 26.4001 8.58783 26.4001 8.8C26.4001 9.01217 26.3158 9.21566 26.1658 9.36569C26.0158 9.51571 25.8123 9.6 25.6001 9.6Z" fill="#3F9E3D"/>
<path d="M43.2001 47.2001H4.80005C4.27476 47.2001 3.75462 47.0966 3.26932 46.8956C2.78401 46.6946 2.34306 46.4 1.97162 46.0285C1.22148 45.2784 0.800049 44.261 0.800049 43.2001V20.0001C0.800049 19.3636 1.05291 18.7531 1.50299 18.303C1.95308 17.853 2.56353 17.6001 3.20005 17.6001H16.2072C16.6304 17.6001 17.0461 17.712 17.4121 17.9244C17.778 18.1368 18.0814 18.4422 18.2913 18.8097L20.1088 21.9905C20.3187 22.3579 20.6221 22.6634 20.988 22.8758C21.354 23.0882 21.7697 23.2001 22.1928 23.2001H44.8C45.4366 23.2001 46.047 23.453 46.4971 23.903C46.9472 24.3531 47.2001 24.9636 47.2001 25.6001V43.2001C47.2001 44.261 46.7786 45.2784 46.0285 46.0285C45.2783 46.7787 44.2609 47.2001 43.2001 47.2001Z" fill="#FBA119"/>
<path d="M4.79995 12.7998H6.39995V17.5998H3.19995V14.3998C3.19995 13.9755 3.36852 13.5685 3.66858 13.2684C3.96864 12.9684 4.3756 12.7998 4.79995 12.7998Z" fill="#F29C1F"/>
<path d="M41.6001 12.7998H43.2001C43.6244 12.7998 44.0314 12.9684 44.3315 13.2684C44.6315 13.5685 44.8001 13.9755 44.8001 14.3998V23.1998H41.6001V12.7998Z" fill="#F29C1F"/>
<path d="M9.60005 36.8002H5.60005C5.38788 36.8002 5.18439 36.7159 5.03436 36.5659C4.88433 36.4159 4.80005 36.2124 4.80005 36.0002C4.80005 35.788 4.88433 35.5845 5.03436 35.4345C5.18439 35.2845 5.38788 35.2002 5.60005 35.2002H9.60005C9.81222 35.2002 10.0157 35.2845 10.1657 35.4345C10.3158 35.5845 10.4 35.788 10.4 36.0002C10.4 36.2124 10.3158 36.4159 10.1657 36.5659C10.0157 36.7159 9.81222 36.8002 9.60005 36.8002Z" fill="#E57E25"/>
<path d="M23.2 36.8002H12.8C12.5878 36.8002 12.3843 36.7159 12.2343 36.5659C12.0843 36.4159 12 36.2124 12 36.0002C12 35.788 12.0843 35.5845 12.2343 35.4345C12.3843 35.2845 12.5878 35.2002 12.8 35.2002H23.2C23.4122 35.2002 23.6157 35.2845 23.7657 35.4345C23.9157 35.5845 24 35.788 24 36.0002C24 36.2124 23.9157 36.4159 23.7657 36.5659C23.6157 36.7159 23.4122 36.8002 23.2 36.8002Z" fill="#E57E25"/>
<path d="M17.6 40.0004H5.60005C5.38788 40.0004 5.18439 39.9161 5.03436 39.7661C4.88433 39.616 4.80005 39.4126 4.80005 39.2004C4.80005 38.9882 4.88433 38.7847 5.03436 38.6347C5.18439 38.4847 5.38788 38.4004 5.60005 38.4004H17.6C17.8122 38.4004 18.0157 38.4847 18.1657 38.6347C18.3158 38.7847 18.4001 38.9882 18.4001 39.2004C18.4001 39.4126 18.3158 39.616 18.1657 39.7661C18.0157 39.9161 17.8122 40.0004 17.6 40.0004Z" fill="#E57E25"/>
<path d="M23.2 43.2001H5.60005C5.38788 43.2001 5.18439 43.1158 5.03436 42.9658C4.88433 42.8158 4.80005 42.6123 4.80005 42.4001C4.80005 42.1879 4.88433 41.9844 5.03436 41.8344C5.18439 41.6844 5.38788 41.6001 5.60005 41.6001H23.2C23.4122 41.6001 23.6157 41.6844 23.7657 41.8344C23.9158 41.9844 24 42.1879 24 42.4001C24 42.6123 23.9158 42.8158 23.7657 42.9658C23.6157 43.1158 23.4122 43.2001 23.2 43.2001Z" fill="#E57E25"/>
<path d="M41.312 10.3999H34.4C33.7635 10.3999 33.153 10.147 32.7029 9.69695C32.2529 9.24686 32 8.63641 32 7.99989V1.08789C32.3475 1.24752 32.6643 1.46684 32.936 1.73589L40.664 9.46389C40.933 9.73562 41.1524 10.0524 41.312 10.3999Z" fill="#858585"/>
</g>
<defs>
<clipPath id="clip0_140_180">
<rect width="48" height="48" fill="white"/>
</clipPath>
</defs>
</svg>
