<svg width="48" height="48" viewBox="0 0 48 48" fill="none" xmlns="http://www.w3.org/2000/svg">
<g clip-path="url(#clip0_140_308)">
<path d="M23.5932 47.1864C36.6234 47.1864 47.1864 36.6234 47.1864 23.5932C47.1864 10.563 36.6234 0 23.5932 0C10.563 0 0 10.563 0 23.5932C0 36.6234 10.563 47.1864 23.5932 47.1864Z" fill="#8D8D8E"/>
<path d="M23.5934 43.9324C34.8263 43.9324 43.9324 34.8263 43.9324 23.5934C43.9324 12.3605 34.8263 3.25439 23.5934 3.25439C12.3605 3.25439 3.25439 12.3605 3.25439 23.5934C3.25439 34.8263 12.3605 43.9324 23.5934 43.9324Z" fill="#ECF0F1"/>
<path d="M23.5935 44.746C11.9112 44.746 2.44092 35.2757 2.44092 23.5935C2.44092 11.9112 11.9112 2.44092 23.5935 2.44092C35.2757 2.44092 44.746 11.9112 44.746 23.5935C44.733 35.2703 35.2703 44.733 23.5935 44.746ZM23.5935 4.06804C12.8099 4.06804 4.06804 12.8099 4.06804 23.5935C4.06804 34.3771 12.8099 43.1189 23.5935 43.1189C34.3771 43.1189 43.1189 34.3771 43.1189 23.5935C43.1063 12.8151 34.3718 4.08059 23.5935 4.06804Z" fill="#BDC3C7"/>
<path d="M39.8647 24.4069H7.32235C6.87303 24.4069 6.50879 24.0427 6.50879 23.5933C6.50879 23.144 6.87303 22.7798 7.32235 22.7798H39.8647C40.314 22.7798 40.6783 23.144 40.6783 23.5933C40.6783 24.0427 40.314 24.4069 39.8647 24.4069Z" fill="#BDC3C7"/>
<path d="M34.1698 13.8306H13.0173C12.1186 13.8306 11.3901 14.5591 11.3901 15.4577V17.0848C11.3901 17.9834 12.1186 18.7119 13.0173 18.7119H34.1698C35.0684 18.7119 35.7969 17.9834 35.7969 17.0848V15.4577C35.7969 14.5591 35.0684 13.8306 34.1698 13.8306Z" fill="#BDC3C7"/>
<path d="M34.1694 13.0171H13.0168C11.6689 13.0171 10.5762 14.1098 10.5762 15.4578V17.0849C10.5762 18.4328 11.6689 19.5256 13.0168 19.5256H34.1694C35.5173 19.5256 36.6101 18.4328 36.6101 17.0849V15.4578C36.6101 14.1098 35.5173 13.0171 34.1694 13.0171ZM12.2033 17.0849V15.4578C12.2033 15.0085 12.5675 14.6442 13.0168 14.6442H15.4575V17.8984H13.0168C12.5675 17.8984 12.2033 17.5342 12.2033 17.0849ZM17.0846 14.6442H20.3389V17.8984H17.0846V14.6442ZM21.966 14.6442H25.2202V17.8984H21.966V14.6442ZM26.8474 14.6442H30.1016V17.8984H26.8474V14.6442ZM34.983 17.0849C34.983 17.5342 34.6187 17.8984 34.1694 17.8984H31.7287V14.6442H34.1694C34.6187 14.6442 34.983 15.0085 34.983 15.4578V17.0849Z" fill="#7F8C8D"/>
<path d="M13.8304 27.6611H11.3897C10.9404 27.6611 10.5762 28.0254 10.5762 28.4747V33.356C10.5762 33.8054 10.9404 34.1696 11.3897 34.1696H13.8304C14.2797 34.1696 14.644 33.8054 14.644 33.356V28.4747C14.644 28.0254 14.2797 27.6611 13.8304 27.6611Z" fill="#BDC3C7"/>
<path d="M13.8305 34.9832H11.3898C10.4912 34.9832 9.7627 34.2548 9.7627 33.3561V28.4748C9.7627 27.5761 10.4912 26.8477 11.3898 26.8477H13.8305C14.7291 26.8477 15.4576 27.5761 15.4576 28.4748V33.3561C15.4576 34.2548 14.7291 34.9832 13.8305 34.9832ZM11.3898 28.4748V33.3561H13.8305V28.4748H11.3898Z" fill="#7F8C8D"/>
<path d="M21.1527 27.6611H18.712C18.2627 27.6611 17.8984 28.0254 17.8984 28.4747V33.356C17.8984 33.8054 18.2627 34.1696 18.712 34.1696H21.1527C21.602 34.1696 21.9662 33.8054 21.9662 33.356V28.4747C21.9662 28.0254 21.602 27.6611 21.1527 27.6611Z" fill="#BDC3C7"/>
<path d="M21.1528 34.9832H18.7121C17.8134 34.9832 17.085 34.2548 17.085 33.3561V28.4748C17.085 27.5761 17.8134 26.8477 18.7121 26.8477H21.1528C22.0514 26.8477 22.7799 27.5761 22.7799 28.4748V33.3561C22.7799 34.2548 22.0514 34.9832 21.1528 34.9832ZM18.7121 28.4748V33.3561H21.1528V28.4748H18.7121Z" fill="#7F8C8D"/>
<path d="M15.7365 44.5325L29.868 22.7543C30.1882 22.2625 30.7353 21.9658 31.3222 21.9658C31.9091 21.9658 32.4562 22.2625 32.7764 22.7543L46.9072 44.5325C47.2497 45.0631 47.274 45.7388 46.9704 46.2927C46.6668 46.8466 46.0841 47.1896 45.4525 47.1863H17.1911C16.5595 47.1896 15.9768 46.8466 15.6732 46.2927C15.3696 45.7388 15.3939 45.0631 15.7365 44.5325Z" fill="#048105"/>
<path d="M45.4529 48H17.1914C16.2585 48.0015 15.3997 47.4919 14.9542 46.6722C14.5044 45.8598 14.5432 44.8648 15.055 44.09L29.1858 22.311C29.6562 21.5883 30.4602 21.1523 31.3226 21.1523C32.185 21.1523 32.9889 21.5883 33.4594 22.311L47.5933 44.09C48.1052 44.8645 48.1441 45.8593 47.6942 46.6714C47.2478 47.4923 46.3873 48.0023 45.4529 48ZM31.3222 22.7796C31.01 22.7762 30.7182 22.934 30.5501 23.197L16.4202 44.976C16.236 45.2512 16.2221 45.6066 16.3844 45.8953C16.5435 46.1923 16.8545 46.3764 17.1914 46.3728H45.4529C45.7903 46.3765 46.1017 46.1921 46.2607 45.8945C46.4231 45.6061 46.4092 45.2508 46.2249 44.976L32.0942 23.197C31.9262 22.9339 31.6343 22.7761 31.3222 22.7796Z" fill="#BDC3C7"/>
<path d="M27.6608 44.7458L29.2879 38.2373L26.0337 36.6102L33.3557 28.4746L31.7286 34.9831L34.9828 36.6102L27.6608 44.7458Z" fill="white"/>
</g>
<defs>
<clipPath id="clip0_140_308">
<rect width="48" height="48" fill="white"/>
</clipPath>
</defs>
</svg>
