<svg width="48" height="48" viewBox="0 0 48 48" fill="none" xmlns="http://www.w3.org/2000/svg">
<g clip-path="url(#clip0_140_198)">
<path d="M36.4415 0.0879085C30.8751 0.0775023 26.3402 4.60347 26.3403 10.17C26.3404 14.0716 28.5567 17.4554 31.799 19.1314C31.9582 19.2138 32.0468 19.3886 32.0205 19.566C31.9197 20.2479 31.5878 21.874 30.6321 22.8552C30.4016 23.0919 30.6154 23.4864 30.9403 23.4262C32.5951 23.1194 35.105 22.3549 36.0345 20.493C36.1079 20.346 36.2551 20.2517 36.4195 20.2518H36.4223C41.9904 20.2518 46.5043 15.738 46.5043 10.1698C46.5042 4.60816 42.0008 0.0983148 36.4415 0.0879085Z" fill="#C1E9AF"/>
<path d="M46.5041 10.1695C46.5041 15.7383 41.9899 20.2514 36.4221 20.2514H36.4192C36.2547 20.2514 36.1074 20.3457 36.0343 20.4929C35.1047 22.355 32.595 23.119 30.9399 23.426C30.6156 23.4866 30.4019 23.092 30.6319 22.8553C31.1814 22.2914 31.5239 21.5149 31.7356 20.8268C32.953 20.3649 34.1452 19.6317 34.7245 18.4712C34.7976 18.324 34.9449 18.2297 35.1094 18.2297H35.1123C40.6801 18.2297 45.1943 13.7166 45.1943 8.14781C45.1943 6.561 44.8276 5.05978 44.1733 3.72412C45.6293 5.47162 46.5041 7.71862 46.5041 10.1695Z" fill="#ADE194"/>
<path d="M19.4138 36.3706H8.81621C6.28365 36.3706 4.23071 34.3176 4.23071 31.7851V14.3928C4.23071 9.07446 8.54209 4.76318 13.8603 4.76318H14.3697C19.688 4.76318 23.9993 9.07456 23.9993 14.3928V31.785C23.9994 34.3176 21.9464 36.3706 19.4138 36.3706Z" fill="#596C76"/>
<path d="M23.999 14.6479V31.6641C23.999 34.2632 21.8925 36.3706 19.2925 36.3706H17.3679C19.968 36.3706 22.0744 34.2632 22.0744 31.6641V14.6479C22.0744 11.9179 20.9678 9.44675 19.1799 7.65875C17.6037 6.08253 15.4992 5.03646 13.1531 4.81034C13.4697 4.77856 13.791 4.76318 14.1153 4.76318C16.8453 4.76318 19.3155 5.86981 21.1045 7.65875C22.8924 9.44675 23.999 11.9179 23.999 14.6479Z" fill="#585858"/>
<path d="M21.9024 16.8258V21.2939C21.9024 25.5947 18.416 29.0811 14.1151 29.0811C9.81426 29.0811 6.32788 25.5947 6.32788 21.2939V14.8614L14.3016 13.2554L21.9024 16.8258Z" fill="#FFCEBF"/>
<path d="M21.9024 16.826V21.2943C21.9024 25.5949 18.4156 29.0817 14.115 29.0817C13.8192 29.0817 13.527 29.0651 13.24 29.0327C17.139 28.5847 20.1725 25.1075 20.1725 20.8856V16.7954L21.9024 16.826Z" fill="#FFB09E"/>
<path d="M21.2749 14.989L20.0836 12.877H6.86836L5.89121 14.989L5.52783 16.8257H6.3278C11.3367 17.1198 14.1149 14.0557 14.115 14.0555C14.115 14.0555 16.8932 17.1197 21.9021 16.8257L21.2749 14.989Z" fill="#596C76"/>
<path d="M6.32789 21.5529H5.29926C4.49086 21.5529 3.83545 20.8975 3.83545 20.0891V19.9926C3.83545 19.1842 4.49086 18.5288 5.29926 18.5288H6.32789V21.5529Z" fill="#FFCEBF"/>
<path d="M21.9023 21.5529H22.931C23.7394 21.5529 24.3948 20.8975 24.3948 20.0891V19.9926C24.3948 19.1842 23.7394 18.5288 22.931 18.5288H21.9023V21.5529Z" fill="#FFCEBF"/>
<path d="M11.3369 21.1555C10.9383 21.1555 10.6152 20.8324 10.6152 20.4338V19.2168C10.6152 18.8182 10.9384 18.4951 11.3369 18.4951C11.7355 18.4951 12.0586 18.8182 12.0586 19.2168V20.4338C12.0586 20.8324 11.7355 21.1555 11.3369 21.1555Z" fill="#596C76"/>
<path d="M16.8933 21.1555C16.4947 21.1555 16.1716 20.8324 16.1716 20.4338V19.2168C16.1716 18.8182 16.4948 18.4951 16.8933 18.4951C17.2918 18.4951 17.615 18.8182 17.615 19.2168V20.4338C17.615 20.8324 17.2919 21.1555 16.8933 21.1555Z" fill="#596C76"/>
<path d="M14.1309 25.5001C13.5492 25.5001 12.9967 25.2482 12.6151 24.8087C12.3537 24.5078 12.3858 24.052 12.6867 23.7906C12.9876 23.5292 13.4435 23.5613 13.7048 23.8622C13.8122 23.9858 13.9675 24.0567 14.1309 24.0567C14.2888 24.0567 14.4351 23.9931 14.543 23.8776C14.8154 23.5866 15.272 23.5711 15.5631 23.8433C15.8542 24.1155 15.8697 24.5722 15.5975 24.8634C15.2193 25.2681 14.6847 25.5001 14.1309 25.5001Z" fill="#596C76"/>
<path d="M26.7347 45.0861H1.49561V28.0954C1.49561 27.8103 1.7267 27.5791 2.01189 27.5791H26.2185C26.5036 27.5791 26.7348 27.8102 26.7348 28.0954V45.0861H26.7347Z" fill="#9FACBA"/>
<path d="M26.7343 28.1094V44.3711H24.8097V28.1094C24.8097 27.8169 24.573 27.5791 24.2805 27.5791H26.2051C26.4976 27.5791 26.7343 27.8169 26.7343 28.1094Z" fill="#AAAAAA"/>
<path d="M13.5821 38.1427C14.7789 38.1427 15.7491 37.1724 15.7491 35.9756C15.7491 34.7788 14.7789 33.8086 13.5821 33.8086C12.3853 33.8086 11.415 34.7788 11.415 35.9756C11.415 37.1724 12.3853 38.1427 13.5821 38.1427Z" fill="#F5F8F9"/>
<path d="M15.7489 35.9754C15.7489 37.1725 14.7789 38.1425 13.5818 38.1425C12.6031 38.1425 11.7756 37.493 11.5071 36.6019C11.662 36.6385 11.8227 36.6568 11.9882 36.6568C13.1853 36.6568 14.1553 35.6867 14.1553 34.4897C14.1553 34.2713 14.1235 34.0615 14.063 33.8633C15.0281 34.0806 15.7489 34.9447 15.7489 35.9754Z" fill="#E8EDF2"/>
<path d="M41.2302 7.31152H31.6143C31.2259 7.31152 30.9111 6.9968 30.9111 6.6084C30.9111 6.21999 31.2259 5.90527 31.6143 5.90527H41.2302C41.6186 5.90527 41.9333 6.21999 41.9333 6.6084C41.9333 6.9968 41.6186 7.31152 41.2302 7.31152Z" fill="#048105"/>
<path d="M41.2302 10.3555H31.6143C31.2259 10.3555 30.9111 10.0408 30.9111 9.65234C30.9111 9.26394 31.2259 8.94922 31.6143 8.94922H41.2302C41.6186 8.94922 41.9333 9.26394 41.9333 9.65234C41.9333 10.0408 41.6186 10.3555 41.2302 10.3555Z" fill="#048105"/>
<path d="M37.3836 13.3994H31.6143C31.2259 13.3994 30.9111 13.0847 30.9111 12.6963C30.9111 12.3079 31.2259 11.9932 31.6143 11.9932H37.3836C37.772 11.9932 38.0868 12.3079 38.0868 12.6963C38.0868 13.0847 37.7719 13.3994 37.3836 13.3994Z" fill="#048105"/>
<path d="M47.4842 47.9124H0.515813C0.230906 47.9124 0 47.6814 0 47.3966V44.8874C0 44.6026 0.230906 44.3716 0.515813 44.3716H47.4843C47.7691 44.3716 48.0001 44.6025 48.0001 44.8874V47.3966C48 47.6814 47.7691 47.9124 47.4842 47.9124Z" fill="#FBA119"/>
<path d="M47.9995 44.9013V47.3831C47.9995 47.6756 47.7627 47.9123 47.4702 47.9123H45.5457C45.8382 47.9123 46.0749 47.6756 46.0749 47.3831V44.9013C46.0749 44.6088 45.8382 44.3711 45.5457 44.3711H47.4702C47.7627 44.3712 47.9995 44.6088 47.9995 44.9013Z" fill="#E57E25"/>
</g>
<defs>
<clipPath id="clip0_140_198">
<rect width="48" height="48" fill="white"/>
</clipPath>
</defs>
</svg>
