<svg width="42" height="48" viewBox="0 0 42 48" fill="none" xmlns="http://www.w3.org/2000/svg">
<g clip-path="url(#clip0_140_328)">
<path d="M39.5404 47.848H3.10254C1.74336 47.848 0.641602 46.9109 0.641602 45.755V2.09302C0.641602 0.937047 1.74336 0 3.10254 0H39.5403C40.8995 0 42.0012 0.937047 42.0012 2.09302V45.755C42.0013 46.9109 40.8995 47.848 39.5404 47.848Z" fill="#786E79"/>
<path d="M4.49512 21.0204V15.4664C4.49512 14.8884 5.046 14.4199 5.72559 14.4199H12.2559C12.9355 14.4199 13.4864 14.8884 13.4864 15.4664V21.0204C13.4864 21.5984 12.9355 22.0669 12.2559 22.0669H5.72559C5.046 22.0669 4.49512 21.5984 4.49512 21.0204Z" fill="#DAEAEF"/>
<path d="M12.2022 14.4199H10.2754C10.9848 14.4199 11.5599 14.909 11.5599 15.5124V20.9744C11.5599 21.5777 10.9848 22.0669 10.2754 22.0669H12.2021C12.9114 22.0669 13.4865 21.5777 13.4865 20.9744V15.5124C13.4865 14.909 12.9115 14.4199 12.2022 14.4199Z" fill="#A8D0D5"/>
<path d="M38.148 21.0204V15.4664C38.148 14.8884 37.5971 14.4199 36.9175 14.4199H30.3872C29.7076 14.4199 29.1567 14.8884 29.1567 15.4664V21.0204C29.1567 21.5984 29.7076 22.0669 30.3872 22.0669H36.9175C37.5971 22.0669 38.148 21.5984 38.148 21.0204Z" fill="#DAEAEF"/>
<path d="M16.8262 21.0204V15.4664C16.8262 14.8884 17.3771 14.4199 18.0566 14.4199H24.587C25.2666 14.4199 25.8175 14.8884 25.8175 15.4664V21.0204C25.8175 21.5984 25.2666 22.0669 24.587 22.0669H18.0566C17.3771 22.0669 16.8262 21.5984 16.8262 21.0204Z" fill="#DAEAEF"/>
<path d="M24.5326 14.4199H22.606C23.3153 14.4199 23.8904 14.909 23.8904 15.5124V20.9744C23.8904 21.5777 23.3153 22.0669 22.606 22.0669H24.5326C25.242 22.0669 25.8171 21.5777 25.8171 20.9744V15.5124C25.8171 14.909 25.242 14.4199 24.5326 14.4199Z" fill="#A8D0D5"/>
<path d="M36.8637 14.4199H34.937C35.6464 14.4199 36.2215 14.909 36.2215 15.5124V20.9744C36.2215 21.5777 35.6464 22.0669 34.937 22.0669H36.8637C37.573 22.0669 38.1482 21.5777 38.1482 20.9744V15.5124C38.148 14.909 37.573 14.4199 36.8637 14.4199Z" fill="#A8D0D5"/>
<path d="M4.49512 32.163V26.609C4.49512 26.031 5.046 25.5625 5.72559 25.5625H12.2559C12.9355 25.5625 13.4864 26.031 13.4864 26.609V32.163C13.4864 32.7409 12.9355 33.2095 12.2559 33.2095H5.72559C5.046 33.2095 4.49512 32.7409 4.49512 32.163Z" fill="#DAEAEF"/>
<path d="M16.8262 32.163V26.609C16.8262 26.031 17.3771 25.5625 18.0566 25.5625H24.587C25.2666 25.5625 25.8175 26.031 25.8175 26.609V32.163C25.8175 32.7409 25.2666 33.2095 24.587 33.2095H18.0566C17.3771 33.2095 16.8262 32.7409 16.8262 32.163Z" fill="#DAEAEF"/>
<path d="M12.2022 25.5625H10.2754C10.9848 25.5625 11.5599 26.0515 11.5599 26.655V32.117C11.5599 32.7203 10.9848 33.2095 10.2754 33.2095H12.2021C12.9114 33.2095 13.4865 32.7203 13.4865 32.117V26.655C13.4865 26.0515 12.9115 25.5625 12.2022 25.5625Z" fill="#A8D0D5"/>
<path d="M24.5326 25.5625H22.606C23.3153 25.5625 23.8904 26.0515 23.8904 26.655V32.117C23.8904 32.7203 23.3153 33.2095 22.606 33.2095H24.5326C25.242 33.2095 25.8171 32.7203 25.8171 32.117V26.655C25.8171 26.0515 25.242 25.5625 24.5326 25.5625Z" fill="#A8D0D5"/>
<path d="M4.49512 43.3059V37.7521C4.49512 37.1741 5.046 36.7056 5.72559 36.7056H12.2559C12.9355 36.7056 13.4864 37.1741 13.4864 37.7521V43.306C13.4864 43.884 12.9355 44.3525 12.2559 44.3525H5.72559C5.046 44.3524 4.49512 43.8839 4.49512 43.3059Z" fill="#DAEAEF"/>
<path d="M16.8262 43.3059V37.7521C16.8262 37.1741 17.3771 36.7056 18.0566 36.7056H24.587C25.2666 36.7056 25.8175 37.1741 25.8175 37.7521V43.306C25.8175 43.884 25.2666 44.3525 24.587 44.3525H18.0566C17.3771 44.3524 16.8262 43.8839 16.8262 43.3059Z" fill="#DAEAEF"/>
<path d="M12.2022 36.7056H10.2754C10.9848 36.7056 11.5599 37.1946 11.5599 37.798V43.2601C11.5599 43.8634 10.9848 44.3525 10.2754 44.3525H12.2021C12.9114 44.3525 13.4865 43.8634 13.4865 43.2601V37.798C13.4865 37.1946 12.9115 36.7056 12.2022 36.7056Z" fill="#A8D0D5"/>
<path d="M24.5326 36.7056H22.606C23.3153 36.7056 23.8904 37.1946 23.8904 37.798V43.2601C23.8904 43.8634 23.3153 44.3525 22.606 44.3525H24.5326C25.242 44.3525 25.8171 43.8634 25.8171 43.2601V37.798C25.8171 37.1946 25.242 36.7056 24.5326 36.7056Z" fill="#A8D0D5"/>
<path d="M4.49512 9.8778V4.32386C4.49512 3.74587 5.046 3.27734 5.72559 3.27734H36.9176C37.5972 3.27734 38.1481 3.74587 38.1481 4.32386V9.8778C38.1481 10.4558 37.5972 10.9243 36.9176 10.9243H5.72559C5.046 10.9243 4.49512 10.4558 4.49512 9.8778Z" fill="#D6FED6"/>
<path d="M36.8639 3.27734H34.1665C34.8759 3.27734 35.451 3.76638 35.451 4.3698V9.83185C35.451 10.4352 34.876 10.9243 34.1665 10.9243H36.8639C37.5733 10.9243 38.1484 10.4352 38.1484 9.83185V4.3698C38.1483 3.76638 37.5733 3.27734 36.8639 3.27734Z" fill="#028103"/>
<path d="M37.1206 47.848H39.5406C40.8997 47.848 42.0015 46.9073 42.0015 45.7468V2.10119C42.0015 0.940709 40.8997 0 39.5406 0H37.1206C38.5393 0 39.6896 0.978175 39.6896 2.1848V45.6631C39.6896 46.8698 38.5393 47.848 37.1206 47.848Z" fill="#554E57"/>
<path d="M29.1567 26.655V43.2597C29.1567 43.8631 29.7319 44.3522 30.4412 44.3522H36.8635C37.5729 44.3522 38.148 43.8631 38.148 43.2597V26.655C38.148 26.0516 37.5729 25.5625 36.8635 25.5625H30.4412C29.7317 25.5625 29.1567 26.0516 29.1567 26.655Z" fill="#FBA119"/>
<path d="M36.8637 25.5625H34.937C35.6464 25.5625 36.2215 26.0515 36.2215 26.655V43.2597C36.2215 43.8631 35.6465 44.3522 34.937 44.3522H36.8637C37.573 44.3522 38.1482 43.8632 38.1482 43.2597V26.655C38.148 26.0515 37.573 25.5625 36.8637 25.5625Z" fill="#F29C1F"/>
</g>
<defs>
<clipPath id="clip0_140_328">
<rect width="42" height="48" fill="white"/>
</clipPath>
</defs>
</svg>
