<svg width="182" height="62" viewBox="0 0 182 62" fill="none" xmlns="http://www.w3.org/2000/svg">
<path d="M32.2064 57.4547C47.042 57.4547 59.0687 45.5027 59.0687 30.7591C59.0687 16.0155 47.042 4.06348 32.2064 4.06348C17.3707 4.06348 5.34399 16.0155 5.34399 30.7591C5.34399 45.5027 17.3707 57.4547 32.2064 57.4547Z" fill="#FDA31B"/>
<path fill-rule="evenodd" clip-rule="evenodd" d="M22.4223 31.1531C21.4177 29.4901 20.8499 27.5645 20.8499 25.5076C20.8499 19.4245 25.9166 14.4792 32.2063 14.4792C38.4524 14.4792 43.5191 19.4245 43.5191 25.5076C43.5191 27.6958 42.9076 29.7527 41.7719 31.4594C41.4662 31.9408 41.1168 32.3785 40.7236 32.8161C38.8018 35.048 36.2684 37.1049 36.3558 39.9057H28.3189C28.1442 37.4112 26.3534 35.5732 24.6062 33.7789C23.7326 32.9911 22.9901 32.1159 22.4223 31.1531Z" fill="#585858"/>
<path fill-rule="evenodd" clip-rule="evenodd" d="M28.5808 40.7371H35.7878C36.3119 40.7371 36.7051 41.1309 36.7051 41.6561C36.7051 42.1375 36.3119 42.5751 35.7878 42.5751H28.5808C28.0567 42.5751 27.6636 42.1375 27.6636 41.6561C27.6636 41.1309 28.0567 40.7371 28.5808 40.7371Z" fill="#585858"/>
<path fill-rule="evenodd" clip-rule="evenodd" d="M28.5808 43.0564H35.7878C36.3119 43.0564 36.7051 43.494 36.7051 43.9754C36.7051 44.5006 36.3119 44.8945 35.7878 44.8945H28.5808C28.0567 44.8945 27.6636 44.5006 27.6636 43.9754C27.6636 43.494 28.0567 43.0564 28.5808 43.0564Z" fill="#585858"/>
<path fill-rule="evenodd" clip-rule="evenodd" d="M32.2064 45.595H30.1099C30.1099 46.3827 31.0271 47.0392 32.2064 47.0392C33.3421 47.0392 34.2593 46.3827 34.2593 45.595H32.2064Z" fill="#585858"/>
<path fill-rule="evenodd" clip-rule="evenodd" d="M31.6823 39.0303H32.6869C32.8179 39.0303 32.9053 38.9428 32.9053 38.8115V31.678C32.9053 31.5468 32.8179 31.4592 32.6869 31.4592H31.6823C31.5512 31.4592 31.4639 31.5468 31.4639 31.678V38.8115C31.4639 38.9428 31.5512 39.0303 31.6823 39.0303Z" fill="#FDA31B"/>
<path fill-rule="evenodd" clip-rule="evenodd" d="M28.6248 31.5035L28.7558 32.4225C28.7995 32.5538 28.8868 32.5975 29.0179 32.5975L35.5697 31.1096C35.657 31.1096 35.7444 30.9783 35.7444 30.847L35.6133 29.928C35.5697 29.7967 35.4823 29.7529 35.3513 29.7529L28.7995 31.2409C28.7121 31.2409 28.6248 31.3722 28.6248 31.5035Z" fill="#FDA31B"/>
<path fill-rule="evenodd" clip-rule="evenodd" d="M28.6248 29.1401L28.7558 30.1029C28.7995 30.1904 28.8868 30.278 29.0179 30.2342L35.5697 28.79C35.657 28.7462 35.7444 28.6587 35.7444 28.5274L35.6133 27.6084C35.5697 27.4771 35.4823 27.4333 35.3513 27.4333L28.7995 28.9213C28.7121 28.9213 28.6248 29.0526 28.6248 29.1401Z" fill="#FDA31B"/>
<path fill-rule="evenodd" clip-rule="evenodd" d="M28.6248 26.908L28.7558 27.827C28.7995 27.9583 28.8868 28.0021 29.0179 28.0021L35.5697 26.5141C35.657 26.5141 35.7444 26.3828 35.7444 26.2516L35.6133 25.3325C35.5697 25.2012 35.4823 25.1575 35.3513 25.1575L28.7995 26.6454C28.7121 26.6454 28.6248 26.7767 28.6248 26.908Z" fill="#FDA31B"/>
<path fill-rule="evenodd" clip-rule="evenodd" d="M32.1627 57.805C17.4429 57.7175 5.60603 45.6388 5.69339 30.7593C5.78074 15.9235 17.7487 3.93238 32.4684 4.01991C47.1881 4.10743 59.025 16.2299 58.9377 31.0656C58.8503 45.9452 46.8824 57.8926 32.1627 57.805ZM49.5031 60.9998L14.9533 60.7809C7.52789 60.7372 1.45656 54.6103 1.50023 47.2143L1.71863 14.4356C1.76231 6.99581 7.87732 0.956473 15.3027 1.00024L49.8525 1.17529C57.2779 1.26282 63.3055 7.34592 63.2619 14.7857L63.0871 47.5644C63.0435 55.0042 56.9285 61.0435 49.5031 60.9998Z" stroke="#FDA31B" stroke-width="1.88983"/>
<path d="M75.5355 21.8751C76.4091 18.1552 78.0689 16.3171 80.4712 16.3171C82.262 16.3171 83.6597 17.2799 84.6207 19.2493C85.5816 21.2186 86.0621 24.0195 86.0621 27.6081C86.0621 31.328 85.5816 34.2163 84.6644 36.1857C83.7034 38.1988 82.3494 39.2054 80.6022 39.2054C79.0735 39.2054 77.8505 38.5489 77.0206 37.2798C76.1907 36.0544 75.6229 34.3914 75.2734 32.3783L78.4183 30.6715C78.7241 32.9034 79.4229 34.0413 80.5149 34.0413C81.7816 34.0413 82.4804 32.6409 82.6551 29.84H79.4229V25.7263H82.6551C82.4804 22.8816 81.7379 21.4374 80.4712 21.4374C79.5103 21.4374 78.8551 22.3565 78.5057 24.2383L75.5355 21.8751Z" fill="#FDA31B"/>
<path d="M96.6325 38.8116H93.6623V27.2581H91.391V33.9977C91.391 35.792 91.2163 37.1049 90.8669 37.9801C90.5175 38.8554 89.9496 39.293 89.2071 39.293C88.3772 39.293 87.6347 39.118 86.9795 38.8116V34.2602C87.3289 34.5228 87.591 34.6104 87.7657 34.6104C88.2025 34.6104 88.3772 33.9977 88.3772 32.7723V22.7505H96.6325V38.8116Z" fill="#FDA31B"/>
<path d="M107.115 32.3347H101.131C101.175 33.2975 101.306 34.0414 101.524 34.5228C101.786 35.223 102.18 35.5732 102.616 35.5732C102.922 35.5732 103.228 35.4419 103.49 35.1355C103.621 34.9167 103.796 34.6104 104.014 34.129L106.94 34.6979C106.504 36.2734 105.936 37.455 105.324 38.1552C104.669 38.8554 103.752 39.2055 102.573 39.2055C101.524 39.2055 100.738 38.8992 100.127 38.2865C99.5588 37.6738 99.0347 36.7548 98.6416 35.4419C98.2921 34.129 98.0737 32.5972 98.0737 30.8467C98.0737 28.3084 98.4668 26.2953 99.2531 24.7198C100.039 23.1881 101.088 22.4004 102.485 22.4004C103.621 22.4004 104.494 22.7505 105.15 23.4507C105.761 24.1509 106.285 25.1575 106.591 26.4704C106.94 27.7833 107.115 29.5338 107.115 31.6345V32.3347ZM104.058 29.4025C104.014 28.1771 103.883 27.3456 103.621 26.8205C103.359 26.2953 103.009 26.0327 102.616 26.0327C102.136 26.0327 101.743 26.4266 101.481 27.2144C101.306 27.6958 101.175 28.4397 101.131 29.4025H104.058Z" fill="#FDA31B"/>
<path d="M117.161 38.8118H113.798L112.662 34.3917C112.488 33.6915 112.313 33.2539 112.138 33.0788C111.964 32.9038 111.745 32.7725 111.483 32.7725V38.8118H108.469V22.7507H111.483V28.5712C111.745 28.5274 111.92 28.3524 112.007 28.0898C112.138 27.7835 112.313 27.1708 112.531 26.208C112.75 25.2889 112.968 24.5887 113.143 24.1073C113.318 23.6697 113.536 23.3634 113.798 23.1445C114.06 22.9257 114.41 22.7507 114.846 22.7069C115.239 22.6631 115.851 22.6194 116.681 22.6194V26.9957H116.55C116.113 26.9957 115.807 26.9957 115.633 27.0832C115.414 27.127 115.239 27.3021 115.108 27.4771C114.977 27.6959 114.846 28.1336 114.672 28.79C114.497 29.4465 114.366 29.8841 114.235 30.1467C114.147 30.4093 113.973 30.5843 113.754 30.6718C114.191 30.7594 114.497 30.9344 114.715 31.2408C114.934 31.5033 115.283 32.4224 115.764 33.9979L117.161 38.8118Z" fill="#FDA31B"/>
<path d="M124.718 27.2581H122.534V38.8116H119.564V27.2581H117.38V22.7505H124.718V27.2581Z" fill="#FDA31B"/>
<path d="M125.81 44.8947V22.7505H128.605V25.1575C128.998 24.1509 129.348 23.4507 129.653 23.1006C130.09 22.6192 130.571 22.4004 131.095 22.4004C132.143 22.4004 132.973 23.2319 133.541 24.8511C134.109 26.5141 134.371 28.5273 134.371 30.978C134.371 33.6476 134.065 35.6607 133.453 37.1049C132.842 38.5053 132.056 39.2055 131.095 39.2055C130.658 39.2055 130.221 39.0305 129.828 38.7241C129.479 38.374 129.129 37.8926 128.823 37.2799V44.8947H125.81ZM128.78 30.8467C128.78 32.1159 128.911 33.0786 129.173 33.6913C129.435 34.304 129.784 34.6104 130.177 34.6104C130.527 34.6104 130.789 34.304 131.051 33.7351C131.269 33.1224 131.4 32.1159 131.4 30.7154C131.4 29.4025 131.269 28.4397 131.007 27.827C130.789 27.2144 130.483 26.908 130.134 26.908C129.741 26.908 129.435 27.2144 129.173 27.827C128.911 28.4397 128.78 29.4463 128.78 30.8467Z" fill="#FDA31B"/>
<path d="M135.463 30.8467C135.463 28.396 135.856 26.3829 136.642 24.7636C137.472 23.1881 138.564 22.4004 139.918 22.4004C141.49 22.4004 142.67 23.3194 143.456 25.2012C144.067 26.6892 144.417 28.571 144.417 30.7592C144.417 33.2099 144.024 35.223 143.194 36.8423C142.408 38.4178 141.316 39.2055 139.918 39.2055C138.651 39.2055 137.647 38.5491 136.86 37.2362C135.943 35.6169 135.463 33.4725 135.463 30.8467ZM138.433 30.8467C138.433 32.2909 138.608 33.3412 138.87 33.9977C139.132 34.6979 139.481 35.048 139.918 35.048C140.355 35.048 140.704 34.6979 140.966 34.0414C141.272 33.3412 141.403 32.2909 141.403 30.7592C141.403 29.3588 141.272 28.3522 140.966 27.652C140.704 26.9955 140.355 26.6454 139.962 26.6454C139.525 26.6454 139.175 26.9955 138.87 27.652C138.608 28.3522 138.433 29.4025 138.433 30.8467Z" fill="#FDA31B"/>
<path d="M151.667 32.5535L154.507 33.2099C154.376 34.4353 154.113 35.4856 153.764 36.3609C153.371 37.2799 152.934 37.9364 152.366 38.4615C151.799 38.9429 151.1 39.2055 150.27 39.2055C149.44 39.2055 148.741 39.0305 148.173 38.7241C147.649 38.4178 147.169 37.8926 146.775 37.1924C146.382 36.4484 146.033 35.6169 145.815 34.6541C145.596 33.6913 145.509 32.466 145.509 30.8467C145.509 29.2275 145.64 27.827 145.902 26.733C146.12 25.9452 146.382 25.2012 146.732 24.5886C147.081 23.9321 147.431 23.4507 147.78 23.1444C148.392 22.663 149.134 22.4004 150.051 22.4004C151.318 22.4004 152.279 22.8818 152.934 23.8008C153.633 24.7198 154.113 26.1203 154.376 27.9146L151.536 28.6585C151.449 28.0021 151.318 27.4769 151.056 27.1268C150.838 26.7767 150.532 26.6017 150.139 26.6017C149.615 26.6017 149.221 26.9518 148.916 27.6958C148.61 28.4397 148.479 29.5338 148.479 31.0218C148.479 32.3347 148.61 33.3412 148.916 34.0414C149.221 34.6979 149.615 35.048 150.095 35.048C150.488 35.048 150.794 34.8292 151.056 34.4353C151.362 34.0414 151.536 33.385 151.667 32.5535Z" fill="#FDA31B"/>
<path d="M164.553 32.3347H158.525C158.612 33.2975 158.743 34.0414 158.918 34.5228C159.224 35.223 159.617 35.5732 160.054 35.5732C160.36 35.5732 160.665 35.4419 160.927 35.1355C161.058 34.9167 161.233 34.6104 161.452 34.129L164.378 34.6979C163.941 36.2734 163.373 37.455 162.762 38.1552C162.107 38.8554 161.189 39.2055 160.01 39.2055C158.962 39.2055 158.176 38.8992 157.564 38.2865C156.996 37.6738 156.472 36.7548 156.079 35.4419C155.686 34.129 155.511 32.5972 155.511 30.8467C155.511 28.3084 155.904 26.2953 156.691 24.7198C157.477 23.1881 158.525 22.4004 159.923 22.4004C161.015 22.4004 161.932 22.7505 162.543 23.4507C163.199 24.1509 163.723 25.1575 164.029 26.4704C164.378 27.7833 164.553 29.5338 164.553 31.6345V32.3347ZM161.495 29.4025C161.452 28.1771 161.277 27.3456 161.058 26.8205C160.796 26.2953 160.447 26.0327 160.054 26.0327C159.573 26.0327 159.18 26.4266 158.918 27.2144C158.7 27.6958 158.612 28.4397 158.569 29.4025H161.495Z" fill="#FDA31B"/>
<path d="M172.502 27.2581H170.318V38.8116H167.348V27.2581H165.164V22.7505H172.502V27.2581Z" fill="#FDA31B"/>
<path d="M176.652 28.4835H178.006C180.321 28.4835 181.5 30.234 181.5 33.6913C181.5 37.1049 180.364 38.8116 178.093 38.8116H173.682V22.7505H176.652V28.4835ZM176.652 35.048H177.613C177.875 35.048 178.093 34.9167 178.224 34.6979C178.399 34.4791 178.443 34.129 178.443 33.6913C178.443 32.7285 178.181 32.2471 177.613 32.2471H176.652V35.048Z" fill="#FDA31B"/>
<path d="M100.782 40.7371H102.179L102.704 43.2316L103.228 40.7371H104.582V44.8508H103.708V41.6999L103.053 44.8508H102.31L101.655 41.6999V44.8508H100.782V40.7371Z" fill="#FDA31B"/>
<path d="M106.154 42.9258H106.591C107.334 42.9258 107.683 43.2322 107.683 43.8886C107.683 44.5013 107.334 44.8514 106.635 44.8514H105.237V41.8755H106.154V42.9258ZM106.154 44.1512H106.46C106.547 44.1512 106.591 44.1074 106.678 44.0637C106.722 44.0199 106.722 43.9761 106.722 43.8886C106.722 43.7135 106.635 43.626 106.46 43.626H106.154V44.1512ZM107.945 41.8755H108.906V44.8514H107.945V41.8755Z" fill="#FDA31B"/>
<path d="M111.57 42.707H110.871V44.8514H109.911V42.707H109.255V41.8755H111.57V42.707Z" fill="#FDA31B"/>
<path d="M114.628 44.8514H113.754V43.3634L112.793 44.8514H111.92V41.8755H112.793V43.3634L113.754 41.8755H114.628V44.8514Z" fill="#FDA31B"/>
<path d="M119.433 45.6829H118.777V44.8514H115.196V41.8755H116.157V44.0199H116.681V41.8755H117.598V44.0199H118.122V41.8755H119.083V44.0199H119.433V45.6829Z" fill="#FDA31B"/>
<path d="M122.49 44.8514H121.617V43.3634L120.699 44.8514H119.782V41.8755H120.699V43.3634L121.617 41.8755H122.49V44.8514Z" fill="#FDA31B"/>
<path d="M133.017 40.6499V44.8512H132.056V42.0941C131.925 42.2691 131.794 42.3567 131.619 42.4442C131.488 42.5317 131.313 42.6193 131.095 42.7068V41.7877C131.4 41.6565 131.663 41.4814 131.837 41.3064C132.012 41.1313 132.143 40.9125 132.23 40.6499H133.017Z" fill="#FDA31B"/>
<path d="M134.109 43.9322L135.026 43.8009C135.07 43.9322 135.07 44.0634 135.157 44.1072C135.201 44.1947 135.288 44.1947 135.375 44.1947C135.506 44.1947 135.637 44.1072 135.725 43.9322C135.768 43.8009 135.812 43.4945 135.856 43.0569C135.725 43.2319 135.637 43.3195 135.506 43.3632C135.375 43.4508 135.244 43.4945 135.113 43.4945C134.807 43.4945 134.545 43.3632 134.327 43.1006C134.109 42.8381 134.021 42.488 134.021 42.0941C134.021 41.8315 134.065 41.5689 134.196 41.3501C134.283 41.1313 134.414 40.9562 134.633 40.825C134.807 40.7374 135.026 40.6499 135.332 40.6499C135.637 40.6499 135.943 40.7374 136.118 40.8687C136.336 41.0438 136.511 41.2626 136.642 41.5689C136.729 41.8753 136.817 42.2691 136.817 42.7505C136.817 43.4945 136.686 44.0634 136.424 44.3698C136.161 44.7199 135.812 44.8949 135.332 44.8949C135.07 44.8949 134.851 44.8512 134.72 44.8074C134.545 44.7199 134.414 44.5886 134.327 44.4573C134.24 44.326 134.152 44.151 134.109 43.9322ZM135.812 42.0941C135.812 41.8753 135.768 41.7002 135.681 41.5689C135.594 41.4376 135.463 41.3939 135.332 41.3939C135.201 41.3939 135.113 41.4376 135.026 41.5689C134.938 41.6565 134.895 41.8315 134.895 42.0503C134.895 42.3129 134.938 42.488 135.026 42.5755C135.113 42.7068 135.244 42.7505 135.375 42.7505C135.506 42.7505 135.594 42.7068 135.681 42.5755C135.768 42.488 135.812 42.3129 135.812 42.0941Z" fill="#FDA31B"/>
<path d="M139.918 41.6565L139.001 41.7877C138.957 41.6565 138.913 41.5252 138.87 41.4814C138.782 41.3939 138.739 41.3501 138.651 41.3501C138.477 41.3501 138.389 41.4814 138.302 41.6565C138.215 41.7877 138.171 42.0503 138.171 42.488C138.258 42.3567 138.389 42.2691 138.52 42.1816C138.608 42.1379 138.739 42.0941 138.913 42.0941C139.219 42.0941 139.481 42.2254 139.7 42.488C139.874 42.7505 140.005 43.1006 140.005 43.4945C140.005 43.7571 139.918 44.0197 139.831 44.2385C139.743 44.4573 139.569 44.6324 139.394 44.7199C139.219 44.8512 138.957 44.8949 138.695 44.8949C138.346 44.8949 138.084 44.8512 137.865 44.6761C137.69 44.5448 137.516 44.326 137.385 44.0197C137.254 43.7133 137.21 43.3195 137.21 42.7943C137.21 42.0503 137.341 41.5252 137.603 41.1751C137.865 40.825 138.215 40.6499 138.651 40.6499C138.913 40.6499 139.132 40.6937 139.307 40.7812C139.438 40.8687 139.569 40.9562 139.7 41.1313C139.787 41.2626 139.874 41.4376 139.918 41.6565ZM138.171 43.4945C138.171 43.7133 138.215 43.8884 138.346 44.0197C138.433 44.151 138.52 44.1947 138.651 44.1947C138.782 44.1947 138.913 44.151 138.957 44.0197C139.044 43.9322 139.088 43.7571 139.088 43.5383C139.088 43.2757 139.044 43.1006 138.957 42.9694C138.87 42.8818 138.782 42.7943 138.651 42.7943C138.52 42.7943 138.389 42.8818 138.302 42.9694C138.215 43.1006 138.171 43.2757 138.171 43.4945Z" fill="#FDA31B"/>
<path d="M147.169 42.707H146.12V44.8514H145.203V41.8755H147.169V42.707Z" fill="#FDA31B"/>
<path d="M147.562 43.7134H148.566V44.8512H147.562V43.7134Z" fill="#FDA31B"/>
<path d="M143.106 44.8512H140.267C140.311 44.5011 140.398 44.1947 140.573 43.8884C140.748 43.582 141.054 43.2319 141.49 42.8381C141.752 42.5755 141.927 42.4004 142.014 42.2691C142.102 42.1379 142.146 42.0066 142.146 41.919C142.146 41.7877 142.102 41.6565 142.014 41.5689C141.971 41.4814 141.84 41.4376 141.752 41.4376C141.621 41.4376 141.534 41.4814 141.447 41.5689C141.359 41.7002 141.316 41.8315 141.272 42.0941L140.355 41.9628C140.398 41.6565 140.442 41.3939 140.573 41.2188C140.66 41.0438 140.791 40.9125 140.966 40.825C141.141 40.7374 141.403 40.6499 141.709 40.6499C142.058 40.6499 142.32 40.7374 142.495 40.825C142.67 40.9125 142.801 41.0438 142.932 41.2188C143.019 41.4376 143.063 41.6127 143.063 41.8753C143.063 42.0941 143.019 42.3567 142.888 42.5755C142.757 42.7943 142.539 43.0569 142.233 43.3195C142.058 43.4945 141.927 43.582 141.84 43.6696C141.796 43.7133 141.709 43.8009 141.621 43.9322H143.106V44.8512Z" fill="#FDA31B"/>
</svg>
