<svg width="193" height="100" viewBox="0 0 193 100" fill="none" xmlns="http://www.w3.org/2000/svg">
<path d="M33.7533 78.2183C49.578 78.2183 62.4065 65.4694 62.4065 49.7429C62.4065 34.0164 49.578 21.2676 33.7533 21.2676C17.9286 21.2676 5.1001 34.0164 5.1001 49.7429C5.1001 65.4694 17.9286 78.2183 33.7533 78.2183Z" fill="#6D6D6D"/>
<path fill-rule="evenodd" clip-rule="evenodd" d="M23.3172 50.1629C22.2456 48.389 21.6399 46.335 21.6399 44.141C21.6399 37.6524 27.0444 32.3774 33.7534 32.3774C40.4159 32.3774 45.8204 37.6524 45.8204 44.141C45.8204 46.4751 45.1681 48.6691 43.9568 50.4896C43.6306 51.0031 43.2579 51.4699 42.8386 51.9367C40.7886 54.3175 38.0864 56.5115 38.1795 59.499H29.6069C29.4205 56.8382 27.5103 54.8776 25.6467 52.9637C24.7149 52.1235 23.9228 51.1898 23.3172 50.1629Z" fill="#FEFEFE"/>
<path fill-rule="evenodd" clip-rule="evenodd" d="M29.8864 60.3857H37.5738C38.1329 60.3857 38.5522 60.8059 38.5522 61.366C38.5522 61.8795 38.1329 62.3463 37.5738 62.3463H29.8864C29.3273 62.3463 28.908 61.8795 28.908 61.366C28.908 60.8059 29.3273 60.3857 29.8864 60.3857Z" fill="#FEFEFE"/>
<path fill-rule="evenodd" clip-rule="evenodd" d="M29.8864 62.8604H37.5738C38.1329 62.8604 38.5522 63.3272 38.5522 63.8407C38.5522 64.4008 38.1329 64.8209 37.5738 64.8209H29.8864C29.3273 64.8209 28.908 64.4008 28.908 63.8407C28.908 63.3272 29.3273 62.8604 29.8864 62.8604Z" fill="#FEFEFE"/>
<path fill-rule="evenodd" clip-rule="evenodd" d="M33.7537 65.5684H31.5173C31.5173 66.4086 32.4957 67.1088 33.7537 67.1088C34.965 67.1088 35.9434 66.4086 35.9434 65.5684H33.7537Z" fill="#FEFEFE"/>
<path fill-rule="evenodd" clip-rule="evenodd" d="M33.1946 58.566H34.2662C34.406 58.566 34.4992 58.4727 34.4992 58.3326V50.7236C34.4992 50.5836 34.406 50.4902 34.2662 50.4902H33.1946C33.0549 50.4902 32.9617 50.5836 32.9617 50.7236V58.3326C32.9617 58.4727 33.0549 58.566 33.1946 58.566Z" fill="#6D6D6D"/>
<path fill-rule="evenodd" clip-rule="evenodd" d="M29.9333 50.5372L30.0731 51.5175C30.1197 51.6575 30.2129 51.7042 30.3527 51.7042L37.3413 50.117C37.4344 50.117 37.5276 49.977 37.5276 49.8369L37.3878 48.8566C37.3413 48.7166 37.2481 48.6699 37.1083 48.6699L30.1197 50.2571C30.0265 50.2571 29.9333 50.3971 29.9333 50.5372Z" fill="#6D6D6D"/>
<path fill-rule="evenodd" clip-rule="evenodd" d="M29.9333 48.0159L30.0731 49.0428C30.1197 49.1362 30.2129 49.2296 30.3527 49.1829L37.3413 47.6424C37.4344 47.5957 37.5276 47.5024 37.5276 47.3623L37.3878 46.382C37.3413 46.242 37.2481 46.1953 37.1083 46.1953L30.1197 47.7825C30.0265 47.7825 29.9333 47.9225 29.9333 48.0159Z" fill="#6D6D6D"/>
<path fill-rule="evenodd" clip-rule="evenodd" d="M29.9333 45.6353L30.0731 46.6156C30.1197 46.7556 30.2129 46.8023 30.3527 46.8023L37.3413 45.2152C37.4344 45.2152 37.5276 45.0751 37.5276 44.9351L37.3878 43.9548C37.3413 43.8147 37.2481 43.7681 37.1083 43.7681L30.1197 45.3552C30.0265 45.3552 29.9333 45.4953 29.9333 45.6353Z" fill="#6D6D6D"/>
<path fill-rule="evenodd" clip-rule="evenodd" d="M33.7068 78.592C18.0058 78.4987 5.37976 65.6148 5.47294 49.7433C5.56613 33.9184 18.3319 21.1279 34.033 21.2212C49.734 21.3146 62.36 34.2452 62.2668 50.07C62.1737 65.9415 49.4078 78.6854 33.7068 78.592ZM52.2033 81.9998L15.3501 81.7663C7.42975 81.7197 0.953659 75.1843 1.00025 67.2953L1.2332 32.3313C1.27979 24.3955 7.80247 17.9536 15.7229 18.0003L52.576 18.187C60.4964 18.2803 66.9259 24.769 66.8793 32.7047L66.6929 67.6687C66.6464 75.6045 60.1237 82.0464 52.2033 81.9998Z" fill="#FEFEFE" stroke="#6D6D6D" stroke-width="1.88983"/>
<path d="M79.9712 40.2669C80.903 36.299 82.6734 34.3384 85.2359 34.3384C87.1461 34.3384 88.637 35.3654 89.662 37.466C90.687 39.5666 91.1995 42.5542 91.1995 46.382C91.1995 50.3499 90.687 53.4309 89.7086 55.5315C88.6836 57.6788 87.2393 58.7525 85.3757 58.7525C83.745 58.7525 82.4405 58.0523 81.5553 56.6985C80.6701 55.3915 80.0644 53.6176 79.6917 51.4703L83.0462 49.6497C83.3723 52.0304 84.1178 53.2441 85.2825 53.2441C86.6336 53.2441 87.3791 51.7503 87.5655 48.7628H84.1178V44.3748H87.5655C87.3791 41.3405 86.5871 39.8 85.2359 39.8C84.2109 39.8 83.5121 40.7803 83.1394 42.7876L79.9712 40.2669Z" fill="white"/>
<path d="M102.474 58.3326H99.3061V46.0088H96.8834V53.1977C96.8834 55.1116 96.697 56.512 96.3243 57.4456C95.9516 58.3792 95.3459 58.8461 94.5539 58.8461C93.6686 58.8461 92.8766 58.6593 92.1777 58.3326V53.4778C92.5505 53.7578 92.83 53.8512 93.0164 53.8512C93.4823 53.8512 93.6686 53.1977 93.6686 51.8906V41.2007H102.474V58.3326Z" fill="white"/>
<path d="M113.656 51.4232H107.273C107.32 52.4502 107.459 53.2438 107.692 53.7573C107.972 54.5042 108.391 54.8776 108.857 54.8776C109.183 54.8776 109.509 54.7376 109.789 54.4108C109.929 54.1774 110.115 53.8506 110.348 53.3371L113.47 53.944C113.004 55.6245 112.398 56.8849 111.746 57.6318C111.047 58.3787 110.068 58.7521 108.811 58.7521C107.692 58.7521 106.854 58.4254 106.201 57.7718C105.596 57.1183 105.037 56.138 104.617 54.7376C104.245 53.3371 104.012 51.7033 104.012 49.8361C104.012 47.1286 104.431 44.9813 105.27 43.3007C106.108 41.6669 107.226 40.8267 108.717 40.8267C109.929 40.8267 110.861 41.2001 111.559 41.947C112.212 42.6939 112.771 43.7676 113.097 45.168C113.47 46.5684 113.656 48.4356 113.656 50.6763V51.4232ZM110.395 48.2956C110.348 46.9885 110.208 46.1016 109.929 45.5414C109.649 44.9813 109.276 44.7012 108.857 44.7012C108.345 44.7012 107.925 45.1213 107.646 45.9616C107.459 46.475 107.32 47.2686 107.273 48.2956H110.395Z" fill="white"/>
<path d="M124.372 58.333H120.785L119.573 53.6182C119.387 52.8713 119.201 52.4045 119.014 52.2178C118.828 52.031 118.595 51.891 118.315 51.891V58.333H115.101V41.2011H118.315V47.4096C118.595 47.363 118.781 47.1762 118.874 46.8961C119.014 46.5694 119.201 45.9158 119.434 44.8889C119.666 43.9086 119.899 43.1617 120.086 42.6482C120.272 42.1814 120.505 41.8546 120.785 41.6212C121.064 41.3878 121.437 41.2011 121.903 41.1544C122.322 41.1077 122.974 41.061 123.86 41.061V45.7291H123.72C123.254 45.7291 122.928 45.7291 122.741 45.8225C122.508 45.8692 122.322 46.0559 122.182 46.2426C122.043 46.476 121.903 46.9428 121.716 47.643C121.53 48.3433 121.39 48.8101 121.251 49.0901C121.157 49.3702 120.971 49.557 120.738 49.6503C121.204 49.7437 121.53 49.9304 121.763 50.2572C121.996 50.5373 122.369 51.5176 122.881 53.1981L124.372 58.333Z" fill="white"/>
<path d="M132.432 46.0088H130.103V58.3326H126.935V46.0088H124.605V41.2007H132.432V46.0088Z" fill="white"/>
<path d="M133.597 64.8206V41.2001H136.579V43.7676C136.998 42.6939 137.371 41.947 137.697 41.5736C138.163 41.0601 138.676 40.8267 139.235 40.8267C140.353 40.8267 141.238 41.7136 141.844 43.4408C142.449 45.2147 142.729 47.362 142.729 49.9761C142.729 52.8236 142.403 54.971 141.751 56.5114C141.098 58.0052 140.26 58.7521 139.235 58.7521C138.769 58.7521 138.303 58.5654 137.884 58.2386C137.511 57.8652 137.138 57.3517 136.812 56.6982V64.8206H133.597ZM136.765 49.8361C136.765 51.1898 136.905 52.2168 137.185 52.8703C137.464 53.5239 137.837 53.8506 138.256 53.8506C138.629 53.8506 138.908 53.5239 139.188 52.917C139.421 52.2635 139.561 51.1898 139.561 49.696C139.561 48.2956 139.421 47.2686 139.141 46.6151C138.908 45.9616 138.582 45.6348 138.21 45.6348C137.79 45.6348 137.464 45.9616 137.185 46.6151C136.905 47.2686 136.765 48.3423 136.765 49.8361Z" fill="white"/>
<path d="M143.893 49.8361C143.893 47.2219 144.312 45.0746 145.151 43.3474C146.036 41.6669 147.201 40.8267 148.645 40.8267C150.323 40.8267 151.581 41.807 152.419 43.8142C153.071 45.4014 153.444 47.4087 153.444 49.7427C153.444 52.3568 153.025 54.5042 152.14 56.2313C151.301 57.9119 150.136 58.7521 148.645 58.7521C147.294 58.7521 146.223 58.0519 145.384 56.6515C144.406 54.9243 143.893 52.6369 143.893 49.8361ZM147.061 49.8361C147.061 51.3765 147.248 52.4969 147.527 53.1971C147.807 53.944 148.179 54.3174 148.645 54.3174C149.111 54.3174 149.484 53.944 149.763 53.2438C150.09 52.4969 150.229 51.3765 150.229 49.7427C150.229 48.2489 150.09 47.1753 149.763 46.4284C149.484 45.7282 149.111 45.3547 148.692 45.3547C148.226 45.3547 147.853 45.7282 147.527 46.4284C147.248 47.1753 147.061 48.2956 147.061 49.8361Z" fill="white"/>
<path d="M161.179 51.6566L164.207 52.3568C164.067 53.6639 163.788 54.7842 163.415 55.7179C162.996 56.6982 162.53 57.3984 161.924 57.9585C161.318 58.472 160.573 58.7521 159.688 58.7521C158.803 58.7521 158.057 58.5654 157.451 58.2386C156.892 57.9119 156.38 57.3517 155.961 56.6048C155.541 55.8112 155.168 54.9243 154.936 53.8973C154.703 52.8703 154.609 51.5633 154.609 49.8361C154.609 48.1089 154.749 46.6151 155.029 45.4481C155.262 44.6078 155.541 43.8142 155.914 43.1607C156.287 42.4605 156.659 41.947 157.032 41.6202C157.684 41.1067 158.476 40.8267 159.455 40.8267C160.806 40.8267 161.831 41.3401 162.53 42.3204C163.275 43.3007 163.788 44.7945 164.067 46.7085L161.039 47.502C160.946 46.8018 160.806 46.2416 160.526 45.8682C160.293 45.4947 159.967 45.308 159.548 45.308C158.989 45.308 158.57 45.6815 158.243 46.475C157.917 47.2686 157.778 48.4356 157.778 50.0228C157.778 51.4232 157.917 52.4969 158.243 53.2438C158.57 53.944 158.989 54.3174 159.501 54.3174C159.921 54.3174 160.247 54.084 160.526 53.6639C160.853 53.2438 161.039 52.5436 161.179 51.6566Z" fill="white"/>
<path d="M174.923 51.4232H168.494C168.587 52.4502 168.727 53.2438 168.913 53.7573C169.239 54.5042 169.658 54.8776 170.124 54.8776C170.45 54.8776 170.776 54.7376 171.056 54.4108C171.196 54.1774 171.382 53.8506 171.615 53.3371L174.737 53.944C174.271 55.6245 173.665 56.8849 173.013 57.6318C172.314 58.3787 171.336 58.7521 170.078 58.7521C168.959 58.7521 168.121 58.4254 167.469 57.7718C166.863 57.1183 166.304 56.138 165.884 54.7376C165.465 53.3371 165.279 51.7033 165.279 49.8361C165.279 47.1286 165.698 44.9813 166.537 43.3007C167.375 41.6669 168.494 40.8267 169.984 40.8267C171.149 40.8267 172.128 41.2001 172.78 41.947C173.479 42.6939 174.038 43.7676 174.364 45.168C174.737 46.5684 174.923 48.4356 174.923 50.6763V51.4232ZM171.662 48.2956C171.615 46.9885 171.429 46.1016 171.196 45.5414C170.916 44.9813 170.544 44.7012 170.124 44.7012C169.612 44.7012 169.192 45.1213 168.913 45.9616C168.68 46.475 168.587 47.2686 168.54 48.2956H171.662Z" fill="white"/>
<path d="M183.402 46.0088H181.073V58.3326H177.905V46.0088H175.575V41.2007H183.402V46.0088Z" fill="white"/>
<path d="M187.829 47.3159H189.273C191.742 47.3159 193 49.1831 193 52.8709C193 56.512 191.789 58.3326 189.366 58.3326H184.66V41.2007H187.829V47.3159ZM187.829 54.318H188.854C189.133 54.318 189.366 54.178 189.506 53.9446C189.692 53.7112 189.739 53.3377 189.739 52.8709C189.739 51.8439 189.459 51.3304 188.854 51.3304H187.829V54.318Z" fill="white"/>
<path d="M106.9 60.3857H108.391L108.95 63.0466L109.509 60.3857H110.954V64.7737H110.022V61.4127L109.323 64.7737H108.531L107.832 61.4127V64.7737H106.9V60.3857Z" fill="white"/>
<path d="M112.631 62.7209H113.097C113.889 62.7209 114.262 63.0477 114.262 63.7479C114.262 64.4014 113.889 64.7749 113.144 64.7749H111.653V61.6006H112.631V62.7209ZM112.631 64.028H112.957C113.051 64.028 113.097 63.9813 113.19 63.9346C113.237 63.8879 113.237 63.8413 113.237 63.7479C113.237 63.5612 113.144 63.4678 112.957 63.4678H112.631V64.028ZM114.541 61.6006H115.566V64.7749H114.541V61.6006Z" fill="white"/>
<path d="M118.409 62.4875H117.663V64.7749H116.638V62.4875H115.939V61.6006H118.409V62.4875Z" fill="white"/>
<path d="M121.67 64.7749H120.738V63.1877L119.713 64.7749H118.781V61.6006H119.713V63.1877L120.738 61.6006H121.67V64.7749Z" fill="white"/>
<path d="M126.795 65.6618H126.096V64.7749H122.275V61.6006H123.3V63.8879H123.859V61.6006H124.838V63.8879H125.397V61.6006H126.422V63.8879H126.795V65.6618Z" fill="white"/>
<path d="M130.056 64.7749H129.124V63.1877L128.146 64.7749H127.167V61.6006H128.146V63.1877L129.124 61.6006H130.056V64.7749Z" fill="white"/>
<path d="M141.284 60.2935V64.7748H140.259V61.8339C140.12 62.0206 139.98 62.114 139.793 62.2074C139.654 62.3007 139.467 62.3941 139.234 62.4875V61.5072C139.561 61.3671 139.84 61.1804 140.026 60.9937C140.213 60.8069 140.353 60.5735 140.446 60.2935H141.284Z" fill="white"/>
<path d="M142.449 63.7945L143.428 63.6545C143.474 63.7945 143.474 63.9346 143.567 63.9812C143.614 64.0746 143.707 64.0746 143.8 64.0746C143.94 64.0746 144.08 63.9812 144.173 63.7945C144.22 63.6545 144.266 63.3277 144.313 62.8609C144.173 63.0476 144.08 63.141 143.94 63.1877C143.8 63.281 143.66 63.3277 143.521 63.3277C143.195 63.3277 142.915 63.1877 142.682 62.9076C142.449 62.6275 142.356 62.2541 142.356 61.8339C142.356 61.5538 142.403 61.2738 142.542 61.0404C142.636 60.8069 142.775 60.6202 143.008 60.4802C143.195 60.3868 143.428 60.2935 143.754 60.2935C144.08 60.2935 144.406 60.3868 144.592 60.5269C144.825 60.7136 145.012 60.947 145.151 61.2738C145.245 61.6005 145.338 62.0206 145.338 62.5341C145.338 63.3277 145.198 63.9346 144.918 64.2613C144.639 64.6348 144.266 64.8215 143.754 64.8215C143.474 64.8215 143.241 64.7748 143.101 64.7281C142.915 64.6348 142.775 64.4947 142.682 64.3547C142.589 64.2147 142.496 64.0279 142.449 63.7945ZM144.266 61.8339C144.266 61.6005 144.22 61.4138 144.126 61.2738C144.033 61.1337 143.893 61.087 143.754 61.087C143.614 61.087 143.521 61.1337 143.428 61.2738C143.334 61.3671 143.288 61.5538 143.288 61.7872C143.288 62.0673 143.334 62.2541 143.428 62.3474C143.521 62.4875 143.66 62.5341 143.8 62.5341C143.94 62.5341 144.033 62.4875 144.126 62.3474C144.22 62.2541 144.266 62.0673 144.266 61.8339Z" fill="white"/>
<path d="M148.646 61.3671L147.667 61.5072C147.621 61.3671 147.574 61.2271 147.528 61.1804C147.434 61.087 147.388 61.0404 147.295 61.0404C147.108 61.0404 147.015 61.1804 146.922 61.3671C146.829 61.5072 146.782 61.7872 146.782 62.2541C146.875 62.114 147.015 62.0206 147.155 61.9273C147.248 61.8806 147.388 61.8339 147.574 61.8339C147.9 61.8339 148.18 61.974 148.413 62.2541C148.599 62.5341 148.739 62.9076 148.739 63.3277C148.739 63.6078 148.646 63.8879 148.553 64.1213C148.459 64.3547 148.273 64.5414 148.087 64.6348C147.9 64.7748 147.621 64.8215 147.341 64.8215C146.968 64.8215 146.689 64.7748 146.456 64.5881C146.27 64.4481 146.083 64.2147 145.943 63.8879C145.804 63.5611 145.757 63.141 145.757 62.5808C145.757 61.7872 145.897 61.2271 146.176 60.8536C146.456 60.4802 146.829 60.2935 147.295 60.2935C147.574 60.2935 147.807 60.3401 147.993 60.4335C148.133 60.5269 148.273 60.6202 148.413 60.8069C148.506 60.947 148.599 61.1337 148.646 61.3671ZM146.782 63.3277C146.782 63.5611 146.829 63.7478 146.968 63.8879C147.062 64.0279 147.155 64.0746 147.295 64.0746C147.434 64.0746 147.574 64.0279 147.621 63.8879C147.714 63.7945 147.76 63.6078 147.76 63.3744C147.76 63.0943 147.714 62.9076 147.621 62.7675C147.528 62.6742 147.434 62.5808 147.295 62.5808C147.155 62.5808 147.015 62.6742 146.922 62.7675C146.829 62.9076 146.782 63.0943 146.782 63.3277Z" fill="white"/>
<path d="M156.38 62.4875H155.262V64.7749H154.283V61.6006H156.38V62.4875Z" fill="white"/>
<path d="M156.799 63.561H157.871V64.7747H156.799V63.561Z" fill="white"/>
<path d="M152.047 64.7748H149.019C149.065 64.4014 149.158 64.0746 149.345 63.7478C149.531 63.4211 149.857 63.0476 150.323 62.6275C150.603 62.3474 150.789 62.1607 150.882 62.0206C150.975 61.8806 151.022 61.7406 151.022 61.6472C151.022 61.5072 150.975 61.3671 150.882 61.2738C150.836 61.1804 150.696 61.1337 150.603 61.1337C150.463 61.1337 150.37 61.1804 150.276 61.2738C150.183 61.4138 150.137 61.5538 150.09 61.8339L149.112 61.6939C149.158 61.3671 149.205 61.087 149.345 60.9003C149.438 60.7136 149.578 60.5735 149.764 60.4802C149.95 60.3868 150.23 60.2935 150.556 60.2935C150.929 60.2935 151.208 60.3868 151.395 60.4802C151.581 60.5735 151.721 60.7136 151.861 60.9003C151.954 61.1337 152 61.3204 152 61.6005C152 61.8339 151.954 62.114 151.814 62.3474C151.674 62.5808 151.441 62.8609 151.115 63.141C150.929 63.3277 150.789 63.4211 150.696 63.5144C150.649 63.5611 150.556 63.6545 150.463 63.7945H152.047V64.7748Z" fill="white"/>
</svg>
