<svg width="48" height="48" viewBox="0 0 48 48" fill="none" xmlns="http://www.w3.org/2000/svg">
<g clip-path="url(#clip0_140_289)">
<g opacity="0.8">
<path d="M14.625 8.625H7.125C6.34837 8.625 5.71875 7.99538 5.71875 7.21875V1.40625C5.71875 0.629625 6.34837 0 7.125 0H14.625C15.4016 0 16.0312 0.629625 16.0312 1.40625V7.21875C16.0312 7.99538 15.4016 8.625 14.625 8.625Z" fill="#319631"/>
<path d="M46.5 5.8125H1.5C0.723375 5.8125 0.09375 6.44212 0.09375 7.21875V46.5938C0.09375 47.3704 0.723375 48 1.5 48H46.5C47.2766 48 47.9062 47.3704 47.9062 46.5938V7.21875C47.9062 6.44212 47.2766 5.8125 46.5 5.8125Z" fill="#767676"/>
<path d="M46.5 5.8125H24V48H46.5C47.2766 48 47.9062 47.3704 47.9062 46.5938V7.21875C47.9062 6.44212 47.2766 5.8125 46.5 5.8125Z" fill="#9E9C9C"/>
<path d="M17.9062 14.25H30.0938V39.5625H17.9062V14.25Z" fill="#969696"/>
<path d="M24 14.25H30.0938V39.5625H24V14.25Z" fill="#AAAAAA"/>
<path d="M2.90625 14.25H15.0938V39.5625H2.90625V14.25Z" fill="#969696"/>
<path d="M24 33.4688C21.6447 33.4688 19.7285 31.5526 19.7285 29.1973V24.6152C19.7285 22.2599 21.6447 20.3438 24 20.3438C26.3552 20.3438 28.2714 22.2599 28.2714 24.6152V29.1973C28.2714 31.5526 26.3552 33.4688 24 33.4688ZM24 23.1562C23.1955 23.1562 22.541 23.8107 22.541 24.6152V29.1973C22.541 30.0018 23.1955 30.6562 24 30.6562C24.8044 30.6562 25.4589 30.0018 25.4589 29.1973V24.6152C25.4589 23.8107 24.8044 23.1562 24 23.1562Z" fill="#FBA119"/>
<path d="M25.4589 24.6152V29.1973C25.4589 30.0018 24.8045 30.6562 24 30.6562V33.4688C26.3553 33.4688 28.2714 31.5526 28.2714 29.1973V24.6152C28.2714 22.2599 26.3553 20.3438 24 20.3438V23.1562C24.8045 23.1562 25.4589 23.8107 25.4589 24.6152Z" fill="#FC7617"/>
<path d="M8.99995 33.4688C6.64467 33.4688 4.72852 31.5526 4.72852 29.1973V24.6152C4.72852 22.2599 6.64467 20.3438 8.99995 20.3438C11.3552 20.3438 13.2714 22.2599 13.2714 24.6152V29.1973C13.2714 31.5526 11.3552 33.4688 8.99995 33.4688ZM8.99995 23.1562C8.19548 23.1562 7.54102 23.8107 7.54102 24.6152V29.1973C7.54102 30.0018 8.19548 30.6562 8.99995 30.6562C9.80442 30.6562 10.4589 30.0018 10.4589 29.1973V24.6152C10.4589 23.8107 9.80442 23.1562 8.99995 23.1562Z" fill="#FBA119"/>
<path d="M40.4589 14.25H37.5411L36 16.125L34.7286 14.25H32.9062V39.5625H45.0938V14.25H43.2714L41.9062 16.125L40.4589 14.25Z" fill="#BDBDBD"/>
<path d="M39 19.875C41.3552 19.875 43.2714 17.9588 43.2714 15.6036V14.25H40.4589V15.6036C40.4589 16.408 39.8044 17.0625 39 17.0625C38.1955 17.0625 37.541 16.408 37.541 15.6036V14.25H34.7285V15.6036C34.7285 17.9588 36.6447 19.875 39 19.875Z" fill="#FC7617"/>
<path d="M40.1022 36.75C39.3256 36.75 38.696 36.1204 38.696 35.3438V26.4375H37.8979C37.1213 26.4375 36.4917 25.8079 36.4917 25.0312C36.4917 24.2546 37.1213 23.625 37.8979 23.625H40.1022C40.8788 23.625 41.5085 24.2546 41.5085 25.0312V35.3438C41.5085 36.1204 40.8788 36.75 40.1022 36.75Z" fill="#FC7617"/>
</g>
</g>
<defs>
<clipPath id="clip0_140_289">
<rect width="48" height="48" fill="white"/>
</clipPath>
</defs>
</svg>
