<svg width="48" height="48" viewBox="0 0 48 48" fill="none" xmlns="http://www.w3.org/2000/svg">
<g clip-path="url(#clip0_140_260)">
<path d="M36.8933 48H2.89733C2.68396 48 2.51099 47.827 2.51099 47.6137V0.386344C2.51108 0.172969 2.68405 0 2.89733 0H36.8933C37.1067 0 37.2797 0.172969 37.2797 0.386344V47.6138C37.2797 47.827 37.1067 48 36.8933 48Z" fill="#F9F7F8"/>
<path d="M36.8934 0H33.9961C34.2095 0 34.3824 0.172969 34.3824 0.386344V47.6138C34.3824 47.8271 34.2095 48.0001 33.9961 48.0001H36.8934C37.1068 48.0001 37.2798 47.8271 37.2798 47.6138V0.386344C37.2798 0.172969 37.1068 0 36.8934 0Z" fill="#EFEDEF"/>
<path d="M36.8933 48.0002H2.89733C2.68396 48.0002 2.51099 47.8273 2.51099 47.6139V42.5918H37.2797V47.6139C37.2797 47.8273 37.1067 48.0002 36.8933 48.0002Z" fill="#028103"/>
<path d="M43.6335 48.0002H22.8132C21.7885 48.0002 20.9578 47.1695 20.9578 46.1448V18.5639C20.9578 17.5392 21.7885 16.7085 22.8132 16.7085H43.6335C44.6581 16.7085 45.4889 17.5392 45.4889 18.5639V46.1448C45.4889 47.1695 44.6581 48.0002 43.6335 48.0002Z" fill="#CBC4CC"/>
<path d="M43.6334 16.708H40.7361C41.7608 16.708 42.5915 17.5387 42.5915 18.5634V46.1443C42.5915 47.169 41.7608 47.9997 40.7361 47.9997H43.6334C44.6581 47.9997 45.4888 47.169 45.4888 46.1443V18.5635C45.4888 17.5387 44.6581 16.708 43.6334 16.708Z" fill="#B5ADB6"/>
<path d="M25.98 26.4568V20.2756C25.98 19.9022 26.2827 19.5996 26.656 19.5996H39.7909C40.1643 19.5996 40.4669 19.9023 40.4669 20.2756V26.4568C40.4669 26.8302 40.1642 27.1328 39.7909 27.1328H26.656C26.2826 27.1329 25.98 26.8302 25.98 26.4568Z" fill="#D6FED6"/>
<path d="M39.7907 19.5996H36.8933C37.2667 19.5996 37.5693 19.9022 37.5693 20.2756V26.4568C37.5693 26.8302 37.2666 27.1328 36.8933 27.1328H39.7907C40.1641 27.1328 40.4667 26.8301 40.4667 26.4568V20.2756C40.4667 19.9022 40.164 19.5996 39.7907 19.5996Z" fill="#C7EBC7"/>
<path d="M39.7909 18.8965H26.656C25.8955 18.8965 25.2769 19.5152 25.2769 20.2756V26.4568C25.2769 27.2173 25.8956 27.8359 26.656 27.8359H39.7908C40.5513 27.8359 41.1699 27.2172 41.1699 26.4568V20.2756C41.17 19.5152 40.5513 18.8965 39.7909 18.8965ZM39.7638 26.4298H26.6831V20.3028H39.7638V26.4298Z" fill="#B5ADB6"/>
<path d="M30.4299 35.8223H27.1136C26.4875 35.8223 25.98 35.3148 25.98 34.6887V31.3724C25.98 30.7463 26.4875 30.2388 27.1136 30.2388H30.4299C31.056 30.2388 31.5635 30.7463 31.5635 31.3724V34.6887C31.5635 35.3148 31.056 35.8223 30.4299 35.8223Z" fill="#AAAAAA"/>
<path d="M30.4298 30.2388H27.5325C28.1585 30.2388 28.6661 30.7463 28.6661 31.3724V34.6887C28.6661 35.3148 28.1585 35.8223 27.5325 35.8223H30.4298C31.0559 35.8223 31.5634 35.3148 31.5634 34.6887V31.3724C31.5634 30.7463 31.0559 30.2388 30.4298 30.2388Z" fill="#EBECEC"/>
<path d="M39.3332 35.8223H36.0169C35.3909 35.8223 34.8833 35.3148 34.8833 34.6887V31.3724C34.8833 30.7463 35.3909 30.2388 36.0169 30.2388H39.3332C39.9593 30.2388 40.4669 30.7463 40.4669 31.3724V34.6887C40.4669 35.3148 39.9593 35.8223 39.3332 35.8223Z" fill="#AAAAAA"/>
<path d="M39.3331 30.2388H36.4358C37.0619 30.2388 37.5694 30.7463 37.5694 31.3724V34.6887C37.5694 35.3148 37.0619 35.8223 36.4358 35.8223H39.3331C39.9592 35.8223 40.4668 35.3148 40.4668 34.6887V31.3724C40.4668 30.7463 39.9592 30.2388 39.3331 30.2388Z" fill="#EBECEC"/>
<path d="M30.4299 43.835H27.1136C26.4875 43.835 25.98 43.3275 25.98 42.7014V39.3851C25.98 38.759 26.4875 38.2515 27.1136 38.2515H30.4299C31.056 38.2515 31.5635 38.759 31.5635 39.3851V42.7014C31.5635 43.3275 31.056 43.835 30.4299 43.835Z" fill="#AAAAAA"/>
<path d="M30.4298 38.2515H27.5325C28.1585 38.2515 28.6661 38.759 28.6661 39.3851V42.7014C28.6661 43.3275 28.1585 43.835 27.5325 43.835H30.4298C31.0559 43.835 31.5634 43.3275 31.5634 42.7014V39.3851C31.5634 38.759 31.0559 38.2515 30.4298 38.2515Z" fill="#EBECEC"/>
<path d="M39.3332 43.835H36.0169C35.3909 43.835 34.8833 43.3275 34.8833 42.7014V39.3851C34.8833 38.759 35.3909 38.2515 36.0169 38.2515H39.3332C39.9593 38.2515 40.4669 38.759 40.4669 39.3851V42.7014C40.4669 43.3275 39.9593 43.835 39.3332 43.835Z" fill="#AAAAAA"/>
<path d="M39.3331 38.2515H36.4358C37.0619 38.2515 37.5694 38.759 37.5694 39.3851V42.7014C37.5694 43.3275 37.0619 43.835 36.4358 43.835H39.3331C39.9592 43.835 40.4668 43.3275 40.4668 42.7014V39.3851C40.4668 38.759 39.9592 38.2515 39.3331 38.2515Z" fill="#EBECEC"/>
<path d="M7.34741 6.17627H16.8928C17.2811 6.17627 17.5959 5.86146 17.5959 5.47314C17.5959 5.08483 17.2811 4.77002 16.8928 4.77002H7.34741C6.9591 4.77002 6.64429 5.08483 6.64429 5.47314C6.64429 5.86146 6.95901 6.17627 7.34741 6.17627Z" fill="#B5ADB6"/>
<path d="M7.34741 9.6167H32.9817C33.37 9.6167 33.6848 9.30189 33.6848 8.91357C33.6848 8.52526 33.37 8.21045 32.9817 8.21045H7.34741C6.9591 8.21045 6.64429 8.52526 6.64429 8.91357C6.64429 9.30189 6.95901 9.6167 7.34741 9.6167Z" fill="#B5ADB6"/>
<path d="M32.9816 11.6035H7.34741C6.9591 11.6035 6.64429 11.9183 6.64429 12.3066C6.64429 12.695 6.9591 13.0098 7.34741 13.0098H32.9817C33.37 13.0098 33.6848 12.695 33.6848 12.3066C33.6848 11.9183 33.3699 11.6035 32.9816 11.6035Z" fill="#B5ADB6"/>
<path d="M13.932 22.6238C13.5741 22.4735 13.162 22.642 13.0116 23L9.12088 32.2709C8.9706 32.6289 9.13907 33.041 9.4971 33.1913C9.58598 33.2286 9.67823 33.2463 9.76888 33.2463C10.0437 33.2463 10.3046 33.0842 10.4175 32.815L14.3083 23.5443C14.4585 23.1862 14.2901 22.7741 13.932 22.6238Z" fill="#FBA119"/>
<path d="M11.4467 24.838C11.4467 23.3488 10.3601 22.1372 9.02451 22.1372C7.68895 22.1372 6.60229 23.3488 6.60229 24.838C6.60229 26.3273 7.68895 27.5389 9.02451 27.5389C10.3601 27.5389 11.4467 26.3273 11.4467 24.838ZM9.02451 26.1326C8.46426 26.1326 8.00854 25.552 8.00854 24.838C8.00854 24.1241 8.46436 23.5435 9.02451 23.5435C9.58467 23.5435 10.0405 24.1242 10.0405 24.838C10.0405 25.5519 9.58467 26.1326 9.02451 26.1326Z" fill="#FBA119"/>
<path d="M14.2792 28.4756C12.9435 28.4756 11.8569 29.6872 11.8569 31.1764C11.8569 32.6656 12.9436 33.8773 14.2792 33.8773C15.6147 33.8773 16.7014 32.6656 16.7014 31.1764C16.7014 29.6872 15.6148 28.4756 14.2792 28.4756ZM14.2792 32.471C13.7189 32.471 13.2632 31.8902 13.2632 31.1764C13.2632 30.4626 13.719 29.8818 14.2792 29.8818C14.8393 29.8818 15.2951 30.4626 15.2951 31.1764C15.2951 31.8902 14.8394 32.471 14.2792 32.471Z" fill="#FBA119"/>
</g>
<defs>
<clipPath id="clip0_140_260">
<rect width="48" height="48" fill="white"/>
</clipPath>
</defs>
</svg>
