<svg width="48" height="48" viewBox="0 0 48 48" fill="none" xmlns="http://www.w3.org/2000/svg">
<g clip-path="url(#clip0_140_353)">
<path d="M25.8276 3.37451H28.7255V8.2043H25.8276V3.37451Z" fill="#7A6D79"/>
<path d="M19.5675 13.4746H20.6207C23.3822 13.4746 24.0366 16.2362 27.2769 16.2362C30.5172 16.2362 31.2243 13.4746 33.933 13.4746C36.6417 13.4746 37.6367 13.4746 37.6367 13.4746L36.6707 9.26351H33.933C31.9724 9.26351 30.9059 8.20347 30.4659 7.61723C30.2854 7.37661 29.9996 7.23828 29.6988 7.23828H24.8548C24.554 7.23828 24.2683 7.3767 24.0878 7.61723C23.6478 8.20347 22.5813 9.26351 20.6207 9.26351H19.5675C16.1587 9.26351 13.371 11.9165 13.1528 15.2702L16.99 16.2362C17.197 14.6773 17.952 13.4746 19.5675 13.4746Z" fill="#AAAAAA"/>
<path d="M19.5677 12.5083C18.1837 12.5083 17.0059 13.391 16.5667 14.6242C16.4291 15.0102 16.0661 15.2698 15.6561 15.2698H13.1531C13.144 15.4099 13.1377 15.5508 13.1377 15.6932V16.2358C13.1377 16.7693 13.5702 17.2017 14.1037 17.2017H17.3488C17.8823 17.2017 18.3147 16.7693 18.3147 16.2358V15.6932C18.3147 15.0012 18.8758 14.4401 19.5678 14.4401H20.621C23.3825 14.4401 24.0369 17.2017 27.2772 17.2017C30.5175 17.2017 31.2246 14.4401 33.9333 14.4401C36.6421 14.4401 39.5689 14.4401 39.5689 14.4401V9.26318H36.671V11.5424C36.671 12.0759 36.2386 12.5083 35.7051 12.5083H32.9674C30.2586 12.5083 29.5514 15.2699 26.3112 15.2699C23.0708 15.2699 22.3293 12.5083 19.5677 12.5083Z" fill="#767676"/>
<path d="M40.5345 7.33154H39.5685C39.035 7.33154 38.6025 7.764 38.6025 8.2975V14.4405L41.5004 15.4065L40.5345 7.33154Z" fill="#AAAAAA"/>
<path d="M40.5345 7.33154V13.4746C40.5345 14.0081 40.102 14.4405 39.5685 14.4405H38.6025V15.4065C38.6025 15.94 39.035 16.3724 39.5685 16.3724H41.5004C42.0339 16.3724 42.4664 15.94 42.4664 15.4065V8.2975C42.4664 7.764 42.0339 7.33154 41.5004 7.33154H40.5345Z" fill="#767676"/>
<path d="M23.4752 3.13608C24.9308 3.13608 25.828 3.76067 25.828 3.76067H28.7259C28.7259 3.76067 29.6231 3.13608 31.0787 3.13608C32.4906 3.13608 33.9051 3.65432 35.0311 3.65432C36.3205 3.65432 37.5237 2.54858 37.0614 0.756925C36.654 0.259553 36.0143 0 35.2946 0C34.0635 0 32.4907 0.624588 31.0788 0.624588C30.0212 0.624588 29.2583 0.29481 28.9202 0.114563C28.7796 0.0395077 28.6236 0 28.4642 0H26.0898C25.9304 0 25.7744 0.0395077 25.6338 0.114563C25.2957 0.294907 24.5329 0.624588 23.4752 0.624588C22.0633 0.624588 20.4905 0 19.2594 0C18.0283 0 17.0303 0.75818 17.0303 2.17012C17.0303 2.47556 17.0771 2.75028 17.1628 2.9935C17.6256 3.39138 18.1824 3.70455 19.1315 3.70455C20.8231 3.70455 22.0633 3.13608 23.4752 3.13608Z" fill="#AAAAAA"/>
<path d="M37.0613 0.756836C36.9754 2.01432 36.1001 2.68827 35.031 2.68827C33.905 2.68827 32.4904 2.17003 31.0786 2.17003C30.0209 2.17003 29.2581 2.49981 28.92 2.68006C28.7794 2.75502 28.6234 2.79462 28.464 2.79462H26.0896C25.9302 2.79462 25.7742 2.75511 25.6336 2.68006C25.2955 2.49971 24.5327 2.17003 23.475 2.17003C22.0631 2.17003 19.374 3.02829 17.6824 3.02829C17.5051 3.02829 17.3316 3.01611 17.1626 2.99341C17.473 3.87437 18.2944 4.34015 19.2592 4.34015C20.4903 4.34015 22.0631 3.71556 23.475 3.71556C24.9306 3.71556 25.8278 4.34015 25.8278 4.34015H28.7257C28.7257 4.34015 29.6229 3.71556 31.0785 3.71556C32.4904 3.71556 34.0632 4.34015 35.2943 4.34015C36.5254 4.34015 37.5235 3.58197 37.5235 2.17003C37.5235 1.5835 37.3509 1.11028 37.0613 0.756836Z" fill="#767676"/>
<path d="M5.23123 20.0996C4.65823 20.0996 4.21128 20.5954 4.27039 21.1654L5.48026 32.814L6.57662 38.0569V43.3696L6.87761 46.2675C6.88775 46.3647 6.90678 46.4588 6.93055 46.5509L22.0682 47.5169C22.896 47.5169 24.7897 44.193 24.8751 43.3696L25.3063 20.0997L5.23123 20.0996Z" fill="#D5D5D5"/>
<path d="M26.2208 20.0996H25.3066L22.7096 45.1019C22.6241 45.9253 21.9302 46.5508 21.1023 46.5508H6.93066C7.14733 47.3914 7.90734 47.9998 8.79931 47.9998H22.6528C23.6425 47.9998 24.4721 47.2518 24.5744 46.2674L24.8754 43.3695V37.9602L25.9717 32.8143L27.1817 21.1654C27.2408 20.5955 26.7938 20.0996 26.2208 20.0996Z" fill="#767676"/>
<path d="M6.57683 43.37C6.67913 44.3544 7.50869 45.1023 8.49841 45.1023H22.7097L23.9416 39.3269V33.2414C21.2122 33.6693 18.4025 33.5281 15.7268 32.8144C12.3813 31.9219 8.82587 31.9219 5.48047 32.8144L6.57683 43.37Z" fill="#AAAAAA"/>
<path d="M17.2938 26.5255C17.2938 26.3978 17.1255 25.5988 16.8803 25.1908C16.5873 24.712 16.2447 24.1634 15.9068 23.4496C15.8348 23.2974 15.6175 23.2974 15.5454 23.4496C14.717 25.1992 13.8599 25.9597 13.7788 27.1187C13.893 27.9769 14.4989 28.4797 15.3396 28.4797C16.419 28.4797 17.2938 27.6048 17.2938 26.5255Z" fill="#AAAAAA"/>
<path d="M16.8801 25.1909C16.8976 25.3097 16.9073 25.432 16.9073 25.5597C16.9073 26.6389 16.0324 27.5138 14.9532 27.5138C14.5118 27.5138 14.106 27.3657 13.7788 27.1188C13.7748 27.1777 13.772 27.2373 13.772 27.2984C13.772 28.3776 14.6468 29.2525 15.726 29.2525C16.8052 29.2525 17.68 28.3776 17.68 27.2984C17.68 26.525 17.3419 25.9452 16.8801 25.1909Z" fill="#767676"/>
<path d="M42.7684 36.8914C42.7684 34.5832 41.692 31.7448 39.7323 29.785C38.0277 28.4864 35.9 27.7148 33.5918 27.7148C27.9902 27.7148 23.4492 32.2558 23.4492 37.8574C23.4492 40.1657 24.2208 42.2934 25.5194 43.9979C27.4292 45.9077 30.3176 47.034 32.6258 47.034C38.2274 47.034 42.7684 42.493 42.7684 36.8914Z" fill="#FDA31B"/>
<path d="M39.7324 29.7852C41.0311 31.4897 41.8026 33.6174 41.8026 35.9257C41.8026 41.5272 37.2616 46.0682 31.66 46.0682C29.3518 46.0682 27.2241 45.2966 25.5195 43.9981C27.3723 46.4301 30.2985 48.0001 33.5919 48.0001C39.1935 48.0001 43.7345 43.4592 43.7345 37.8576C43.7346 34.5641 42.1645 31.638 39.7324 29.7852Z" fill="#FDA31B"/>
<path d="M34.6168 37.8665L38.0122 34.4711C38.2951 34.1881 38.2951 33.7294 38.0122 33.4465C37.7292 33.1637 37.2706 33.1637 36.9876 33.4465L33.5922 36.8419L30.1967 33.4465C29.9137 33.1637 29.4551 33.1637 29.1722 33.4465C28.8892 33.7295 28.8892 34.1882 29.1722 34.4711L32.5676 37.8665L29.1722 41.262C28.8892 41.545 28.8892 42.0036 29.1722 42.2866C29.3137 42.428 29.4991 42.4987 29.6845 42.4987C29.8699 42.4987 30.0553 42.428 30.1968 42.2866L33.5923 38.8911L36.9877 42.2866C37.1292 42.428 37.3147 42.4987 37.5001 42.4987C37.6854 42.4987 37.8709 42.428 38.0124 42.2866C38.2953 42.0035 38.2953 41.5449 38.0124 41.262L34.6168 37.8665Z" fill="#EBECEC"/>
</g>
<defs>
<clipPath id="clip0_140_353">
<rect width="48" height="48" fill="white"/>
</clipPath>
</defs>
</svg>
